<?xml version="1.0" encoding="UTF-8" standalone="no"?>
<!-- Created with Inkscape (http://www.inkscape.org/) -->

<svg
   xmlns:dc="http://purl.org/dc/elements/1.1/"
   xmlns:cc="http://creativecommons.org/ns#"
   xmlns:rdf="http://www.w3.org/1999/02/22-rdf-syntax-ns#"
   xmlns:svg="http://www.w3.org/2000/svg"
   xmlns="http://www.w3.org/2000/svg"
   xmlns:sodipodi="http://sodipodi.sourceforge.net/DTD/sodipodi-0.dtd"
   xmlns:inkscape="http://www.inkscape.org/namespaces/inkscape"
   width="773.32mm"
   height="841.62mm"
   version="1.1"
   viewBox="0 0 773.32 841.62"
   id="svg18"
   sodipodi:docname="tacmodStatusIcon.svg"
   inkscape:version="0.92.4 (f8dce91, 2019-08-02)">
  <defs
     id="defs22" />
  <sodipodi:namedview
     pagecolor="#ffffff"
     bordercolor="#666666"
     borderopacity="1"
     objecttolerance="10"
     gridtolerance="10"
     guidetolerance="10"
     inkscape:pageopacity="0"
     inkscape:pageshadow="2"
     inkscape:window-width="1310"
     inkscape:window-height="645"
     id="namedview20"
     showgrid="false"
     inkscape:zoom="0.10492366"
     inkscape:cx="1056.8581"
     inkscape:cy="962.69419"
     inkscape:window-x="0"
     inkscape:window-y="27"
     inkscape:window-maximized="0"
     inkscape:current-layer="svg18" />
  <metadata
     id="metadata2">
    <rdf:RDF>
      <cc:Work
         rdf:about="">
        <dc:format>image/svg+xml</dc:format>
        <dc:type
           rdf:resource="http://purl.org/dc/dcmitype/StillImage" />
        <dc:title></dc:title>
      </cc:Work>
    </rdf:RDF>
  </metadata>
  <path
     style="fill:#ffffff;fill-opacity:1;stroke:#2a3d2b;stroke-width:0.69452602;stroke-linecap:round;stroke-linejoin:round;stroke-dashoffset:743.23999023;paint-order:stroke fill markers"
     d="M 1461.4082 75.96875 C 1264.5326 75.96875 248.24218 662.72477 149.79688 833.23438 C 51.35151 1003.7289 51.351506 2177.258 149.79688 2347.7676 C 248.21572 2518.2621 1264.5326 3105.0332 1461.4082 3105.0332 C 1658.2838 3105.0332 2674.5722 2518.2772 2773.0176 2347.7676 C 2871.4629 2177.2731 2871.4629 1003.744 2773.0176 833.23438 C 2674.5987 662.73989 1658.2989 75.96875 1461.4082 75.96875 z M 1478.6719 950.03711 L 1716.4863 1361.9355 L 1951.3203 955.19922 L 2437.8965 955.19922 L 2437.8965 1091.4258 L 2437.2969 1092.4531 L 2437.2969 2303.2441 L 2259.9375 2303.2441 L 1996.6836 1847.2773 L 1754.4336 2266.8633 L 1512.4336 1847.707 L 1512.3652 1847.8145 C 1512.4292 1847.9253 1512.4946 1848.0396 1512.5586 1848.1504 L 1271.4551 2265.752 L 1123.3691 2265.752 L 1123.3672 2265.752 L 974.98633 2265.752 L 976.63086 1391.8496 L 1123.3672 951.00391 L 1123.3672 951.02148 L 1478.6719 950.03711 z M 1123.3691 2265.752 L 1123.457 2265.7129 C 1123.4569 2239.9171 1123.4211 2214.1193 1123.3691 2188.3203 C 1123.3686 2204.6102 1123.3691 2255.187 1123.3691 2265.752 z M 357.99609 951 L 660.0332 951.00391 L 1055.0703 951.00391 L 908.33398 1391.8496 L 357.99609 1394.8672 L 357.99609 951 z "
     transform="scale(0.26458333)"
     id="path4" />
</svg>
